{
  "accessors": [
    {
      "bufferView": 2,
      "componentType": 5126,
      "count": 65532,
      "max": [
        16.165258407592773,
        -4.101821422576904,
        13.784394264221191
      ],
      "min": [
        -15.102484703063965,
        -29.93104362487793,
        -7.724269390106201
      ],
      "type": "VEC3"
    },
    {
      "bufferView": 2,
      "byteOffset": 786384,
      "componentType": 5126,
      "count": 65532,
      "max": [
        1.0,
        0.9999154210090637,
        1.0
      ],
      "min": [
        -0.9999997019767761,
        -1.0,
        -1.0
      ],
      "type": "VEC3"
    },
    {
      "bufferView": 1,
      "componentType": 5126,
      "count": 65532,
      "max": [
        0.999750018119812,
        0.9998779892921448
      ],
      "min": [
        0.00012199999764561653,
        0.0003239999932702631
      ],
      "type": "VEC2"
    },
    {
      "bufferView": 0,
      "componentType": 5125,
      "count": 311355,
      "type": "SCALAR"
    },
    {
      "bufferView": 2,
      "byteOffset": 1572768,
      "componentType": 5126,
      "count": 65532,
      "max": [
        14.699982643127441,
        -3.850044012069702,
        13.78447437286377
      ],
      "min": [
        -16.904603958129883,
        -30.511873245239258,
        -7.724804878234863
      ],
      "type": "VEC3"
    },
    {
      "bufferView": 2,
      "byteOffset": 2359152,
      "componentType": 5126,
      "count": 65532,
      "max": [
        0.9999966621398926,
        0.9999297857284546,
        1.0
      ],
      "min": [
        -1.0,
        -1.0,
        -0.9999995827674866
      ],
      "type": "VEC3"
    },
    {
      "bufferView": 1,
      "byteOffset": 524256,
      "componentType": 5126,
      "count": 65532,
      "max": [
        0.9998109936714172,
        0.9998779892921448
      ],
      "min": [
        0.00012199999764561653,
        0.00021600000036414713
      ],
      "type": "VEC2"
    },
    {
      "bufferView": 0,
      "byteOffset": 1245420,
      "componentType": 5125,
      "count": 280428,
      "type": "SCALAR"
    },
    {
      "bufferView": 2,
      "byteOffset": 3145536,
      "componentType": 5126,
      "count": 65532,
      "max": [
        16.210010528564453,
        -3.850044012069702,
        13.78447437286377
      ],
      "min": [
        -18.148977279663086,
        -27.7404727935791,
        -7.725069522857666
      ],
      "type": "VEC3"
    },
    {
      "bufferView": 2,
      "byteOffset": 3931920,
      "componentType": 5126,
      "count": 65532,
      "max": [
        0.9999999403953552,
        0.99998539686203,
        0.9999999403953552
      ],
      "min": [
        -0.9999999403953552,
        -0.9999999403953552,
        -0.9999990463256836
      ],
      "type": "VEC3"
    },
    {
      "bufferView": 1,
      "byteOffset": 1048512,
      "componentType": 5126,
      "count": 65532,
      "max": [
        0.9997979998588562,
        0.9998779892921448
      ],
      "min": [
        0.00012199999764561653,
        0.00018400000408291817
      ],
      "type": "VEC2"
    },
    {
      "bufferView": 0,
      "byteOffset": 2367132,
      "componentType": 5125,
      "count": 282069,
      "type": "SCALAR"
    },
    {
      "bufferView": 2,
      "byteOffset": 4718304,
      "componentType": 5126,
      "count": 65532,
      "max": [
        13.678008079528809,
        -4.052951335906982,
        6.268458366394043
      ],
      "min": [
        -15.583745002746582,
        -29.627798080444336,
        -7.715534210205078
      ],
      "type": "VEC3"
    },
    {
      "bufferView": 2,
      "byteOffset": 5504688,
      "componentType": 5126,
      "count": 65532,
      "max": [
        0.9999986290931702,
        0.9998490214347839,
        0.9999995827674866
      ],
      "min": [
        -1.0,
        -0.9999995827674866,
        -0.9999997615814209
      ],
      "type": "VEC3"
    },
    {
      "bufferView": 1,
      "byteOffset": 1572768,
      "componentType": 5126,
      "count": 65532,
      "max": [
        0.9997130036354065,
        0.9998779892921448
      ],
      "min": [
        0.00012199999764561653,
        0.00028199999360367656
      ],
      "type": "VEC2"
    },
    {
      "bufferView": 0,
      "byteOffset": 3495408,
      "componentType": 5125,
      "count": 256776,
      "type": "SCALAR"
    },
    {
      "bufferView": 2,
      "byteOffset": 6291072,
      "componentType": 5126,
      "count": 65532,
      "max": [
        14.68490982055664,
        -4.042984962463379,
        11.357131958007813
      ],
      "min": [
        -14.936579704284668,
        -29.64186668395996,
        -7.798721790313721
      ],
      "type": "VEC3"
    },
    {
      "bufferView": 2,
      "byteOffset": 7077456,
      "componentType": 5126,
      "count": 65532,
      "max": [
        0.9999999403953552,
        0.9999421834945679,
        1.0
      ],
      "min": [
        -0.999999463558197,
        -0.9999998807907104,
        -0.9999992847442627
      ],
      "type": "VEC3"
    },
    {
      "bufferView": 1,
      "byteOffset": 2097024,
      "componentType": 5126,
      "count": 65532,
      "max": [
        0.9997749924659729,
        0.9998779892921448
      ],
      "min": [
        0.00012199999764561653,
        0.0001880000054370612
      ],
      "type": "VEC2"
    },
    {
      "bufferView": 0,
      "byteOffset": 4522512,
      "componentType": 5125,
      "count": 241401,
      "type": "SCALAR"
    },
    {
      "bufferView": 2,
      "byteOffset": 7863840,
      "componentType": 5126,
      "count": 65534,
      "max": [
        16.192594528198242,
        -3.83376145362854,
        13.784239768981934
      ],
      "min": [
        -18.145097732543945,
        -29.842018127441406,
        -7.798721790313721
      ],
      "type": "VEC3"
    },
    {
      "bufferView": 2,
      "byteOffset": 8650248,
      "componentType": 5126,
      "count": 65534,
      "max": [
        0.9999995231628418,
        0.9999614357948303,
        1.0
      ],
      "min": [
        -0.9999997615814209,
        -1.0,
        -0.9999995827674866
      ],
      "type": "VEC3"
    },
    {
      "bufferView": 1,
      "byteOffset": 2621280,
      "componentType": 5126,
      "count": 65534,
      "max": [
        0.9997609853744507,
        0.9998779892921448
      ],
      "min": [
        0.00012199999764561653,
        0.00020700000459328294
      ],
      "type": "VEC2"
    },
    {
      "bufferView": 0,
      "byteOffset": 5488116,
      "componentType": 5125,
      "count": 237762,
      "type": "SCALAR"
    },
    {
      "bufferView": 2,
      "byteOffset": 9436656,
      "componentType": 5126,
      "count": 57987,
      "max": [
        13.834895133972168,
        -4.043002128601074,
        13.781216621398926
      ],
      "min": [
        -14.7025728225708,
        -29.638517379760742,
        -7.518443584442139
      ],
      "type": "VEC3"
    },
    {
      "bufferView": 2,
      "byteOffset": 10132500,
      "componentType": 5126,
      "count": 57987,
      "max": [
        0.9999995231628418,
        0.9999430179595947,
        1.0
      ],
      "min": [
        -0.9999986290931702,
        -0.9999998807907104,
        -0.9999897480010986
      ],
      "type": "VEC3"
    },
    {
      "bufferView": 1,
      "byteOffset": 3145552,
      "componentType": 5126,
      "count": 57987,
      "max": [
        0.9998059868812561,
        0.9998779892921448
      ],
      "min": [
        0.00012199999764561653,
        0.00021399999968707561
      ],
      "type": "VEC2"
    },
    {
      "bufferView": 0,
      "byteOffset": 6439164,
      "componentType": 5125,
      "count": 164340,
      "type": "SCALAR"
    },
    {
      "bufferView": 2,
      "byteOffset": 10828344,
      "componentType": 5126,
      "count": 11706,
      "max": [
        16.210010528564453,
        -3.83376145362854,
        13.78447437286377
      ],
      "min": [
        -18.14728546142578,
        -4.195497512817383,
        -7.724522113800049
      ],
      "type": "VEC3"
    },
    {
      "bufferView": 2,
      "byteOffset": 10968816,
      "componentType": 5126,
      "count": 11706,
      "max": [
        0.9999998807907104,
        0.99998539686203,
        0.9999850392341614
      ],
      "min": [
        -0.9999993443489075,
        -0.5718895196914673,
        -0.9999980330467224
      ],
      "type": "VEC3"
    },
    {
      "bufferView": 1,
      "byteOffset": 3609448,
      "componentType": 5126,
      "count": 11706,
      "max": [
        0.0,
        0.0
      ],
      "min": [
        0.0,
        0.0
      ],
      "type": "VEC2"
    },
    {
      "bufferView": 0,
      "byteOffset": 7096524,
      "componentType": 5125,
      "count": 65568,
      "type": "SCALAR"
    }
  ],
  "asset": {
    "extras": {
      "author": "noe-3d.at (https://sketchfab.com/www.noe-3d.at)",
      "license": "CC-BY-4.0 (http://creativecommons.org/licenses/by/4.0/)",
      "source": "https://sketchfab.com/3d-models/johann-strau-denkmal-d7b1cf114af248e4a9258eaa7325951f",
      "title": "Johann-Strauß-Denkmal"
    },
    "generator": "Sketchfab-12.63.0",
    "version": "2.0"
  },
  "bufferViews": [
    {
      "buffer": 0,
      "byteLength": 7358796,
      "name": "floatBufferViews",
      "target": 34963
    },
    {
      "buffer": 0,
      "byteLength": 3703096,
      "byteOffset": 7358796,
      "byteStride": 8,
      "name": "floatBufferViews",
      "target": 34962
    },
    {
      "buffer": 0,
      "byteLength": 11109288,
      "byteOffset": 11061892,
      "byteStride": 12,
      "name": "floatBufferViews",
      "target": 34962
    }
  ],
  "buffers": [
    {
      "byteLength": 22171180,
      "uri": "scene.bin"
    }
  ],
  "images": [
    {
      "uri": "textures/Strauss_O_Material_u1_v1_baseColor.png"
    }
  ],
  "materials": [
    {
      "doubleSided": true,
      "name": "Strauss_O_Material_u1_v1",
      "pbrMetallicRoughness": {
        "baseColorTexture": {
          "index": 0
        },
        "metallicFactor": 0.0
      }
    }
  ],
  "meshes": [
    {
      "name": "Object_0",
      "primitives": [
        {
          "attributes": {
            "NORMAL": 1,
            "POSITION": 0,
            "TEXCOORD_0": 2
          },
          "indices": 3,
          "material": 0,
          "mode": 4
        }
      ]
    },
    {
      "name": "Object_1",
      "primitives": [
        {
          "attributes": {
            "NORMAL": 5,
            "POSITION": 4,
            "TEXCOORD_0": 6
          },
          "indices": 7,
          "material": 0,
          "mode": 4
        }
      ]
    },
    {
      "name": "Object_2",
      "primitives": [
        {
          "attributes": {
            "NORMAL": 9,
            "POSITION": 8,
            "TEXCOORD_0": 10
          },
          "indices": 11,
          "material": 0,
          "mode": 4
        }
      ]
    },
    {
      "name": "Object_3",
      "primitives": [
        {
          "attributes": {
            "NORMAL": 13,
            "POSITION": 12,
            "TEXCOORD_0": 14
          },
          "indices": 15,
          "material": 0,
          "mode": 4
        }
      ]
    },
    {
      "name": "Object_4",
      "primitives": [
        {
          "attributes": {
            "NORMAL": 17,
            "POSITION": 16,
            "TEXCOORD_0": 18
          },
          "indices": 19,
          "material": 0,
          "mode": 4
        }
      ]
    },
    {
      "name": "Object_5",
      "primitives": [
        {
          "attributes": {
            "NORMAL": 21,
            "POSITION": 20,
            "TEXCOORD_0": 22
          },
          "indices": 23,
          "material": 0,
          "mode": 4
        }
      ]
    },
    {
      "name": "Object_6",
      "primitives": [
        {
          "attributes": {
            "NORMAL": 25,
            "POSITION": 24,
            "TEXCOORD_0": 26
          },
          "indices": 27,
          "material": 0,
          "mode": 4
        }
      ]
    },
    {
      "name": "Object_7",
      "primitives": [
        {
          "attributes": {
            "NORMAL": 29,
            "POSITION": 28,
            "TEXCOORD_0": 30
          },
          "indices": 31,
          "material": 0,
          "mode": 4
        }
      ]
    }
  ],
  "nodes": [
    {
      "children": [
        1
      ],
      "matrix": [
        -0.9999745488166809,
        -0.00643401686102152,
        0.003084012772887944,
        0.0,
        0.00646379915997386,
        -0.9999316334724426,
        0.009746362455189006,
        0.0,
        0.003021093551069498,
        0.009766048751771228,
        0.999947726726532,
        0.0,
        -1.8369630575180054,
        -14.214235305786136,
        14.35046291351318,
        1.0
      ],
      "name": "Sketchfab_model"
    },
    {
      "children": [
        2,
        3,
        4,
        5,
        6,
        7,
        8,
        9
      ],
      "name": "Strauss_C.obj.cleaner.materialmerger.gles"
    },
    {
      "mesh": 0,
      "name": "Object_2"
    },
    {
      "mesh": 1,
      "name": "Object_3"
    },
    {
      "mesh": 2,
      "name": "Object_4"
    },
    {
      "mesh": 3,
      "name": "Object_5"
    },
    {
      "mesh": 4,
      "name": "Object_6"
    },
    {
      "mesh": 5,
      "name": "Object_7"
    },
    {
      "mesh": 6,
      "name": "Object_8"
    },
    {
      "mesh": 7,
      "name": "Object_9"
    }
  ],
  "samplers": [
    {
      "magFilter": 9729,
      "minFilter": 9987,
      "wrapS": 10497,
      "wrapT": 10497
    }
  ],
  "scene": 0,
  "scenes": [
    {
      "name": "Sketchfab_Scene",
      "nodes": [
        0
      ]
    }
  ],
  "textures": [
    {
      "sampler": 0,
      "source": 0
    }
  ]
}
